<svg xmlns="http://www.w3.org/2000/svg" viewBox="0 0 96 78.2"><defs><style>.cls-1{fill:#f5a425;}.cls-2{fill:#343a40;}</style></defs><g id="Layer_2" data-name="Layer 2"><g id="Layer_1-2" data-name="Layer 1"><polygon class="cls-1" points="96 11.94 80 45.07 64 78.2 32 78.2 16 45.07 0 11.94 96 11.94"/><polygon class="cls-1" points="86.1 3.47 12.66 3.47 24.9 35.64 37.14 67.82 61.62 67.82 73.86 35.64 86.1 3.47"/><polygon class="cls-2" points="79.66 0.26 6.43 6.87 20.66 37.85 34.9 68.83 59.3 66.63 69.49 33.44 79.66 0.26"/><polygon class="cls-2" points="90.32 7.15 17.13 0 27.13 33.26 37.14 66.52 61.54 68.9 75.93 38.03 90.32 7.15"/><polygon class="cls-1" points="80.86 8.06 17.9 8.06 28.39 35.64 38.89 63.23 59.87 63.23 70.37 35.64 80.86 8.06"/><polygon class="cls-2" points="42.82 55.93 27.38 15.36 71.38 15.36 55.94 55.93 42.82 55.93"/></g></g></svg>